<svg width="41" height="40" viewBox="0 0 41 40" fill="none" xmlns="http://www.w3.org/2000/svg">
<path d="M24.55 31.3666C24.2334 31.3666 23.9167 31.25 23.6667 31C23.1834 30.5166 23.1834 29.7166 23.6667 29.2333L32.9 20L23.6667 10.7666C23.1834 10.2833 23.1834 9.48328 23.6667 8.99995C24.15 8.51662 24.95 8.51662 25.4334 8.99995L35.55 19.1166C36.0334 19.6 36.0334 20.4 35.55 20.8833L25.4334 31C25.1834 31.25 24.8667 31.3666 24.55 31.3666Z" fill="#FAFBFC"/>
<path d="M34.3834 21.25H6.33337C5.65004 21.25 5.08337 20.6833 5.08337 20C5.08337 19.3167 5.65004 18.75 6.33337 18.75H34.3834C35.0667 18.75 35.6334 19.3167 35.6334 20C35.6334 20.6833 35.0667 21.25 34.3834 21.25Z" fill="#FAFBFC"/>
</svg>
