<svg width="40" height="40" viewBox="0 0 40 40" fill="none" xmlns="http://www.w3.org/2000/svg">
<path d="M36.6666 37.9167H3.33331C2.64998 37.9167 2.08331 37.35 2.08331 36.6667C2.08331 35.9833 2.64998 35.4167 3.33331 35.4167H36.6666C37.35 35.4167 37.9166 35.9833 37.9166 36.6667C37.9166 37.35 37.35 37.9167 36.6666 37.9167Z" fill="#FAFBFC"/>
<path opacity="0.4" d="M35 16.6333V36.6667H4.91669L5.00002 16.6166C5.00002 15.6 5.46669 14.6334 6.28335 14.0001L17.95 4.93339C19.15 3.98339 20.85 3.98339 22.05 4.93339L24.2834 6.66668L31.6667 12.4L33.7167 14.0001C34.5334 14.6334 35 15.6 35 16.6333Z" fill="#FAFBFC"/>
<path d="M21.6666 28.3333H18.3333C16.95 28.3333 15.8333 29.45 15.8333 30.8333V36.6667H24.1666V30.8333C24.1666 29.45 23.05 28.3333 21.6666 28.3333Z" fill="#FAFBFC"/>
<path d="M15.8333 22.9167H12.5C11.5833 22.9167 10.8333 22.1667 10.8333 21.25V18.75C10.8333 17.8333 11.5833 17.0833 12.5 17.0833H15.8333C16.75 17.0833 17.5 17.8333 17.5 18.75V21.25C17.5 22.1667 16.75 22.9167 15.8333 22.9167Z" fill="#FAFBFC"/>
<path d="M27.5 22.9167H24.1667C23.25 22.9167 22.5 22.1667 22.5 21.25V18.75C22.5 17.8333 23.25 17.0833 24.1667 17.0833H27.5C28.4167 17.0833 29.1667 17.8333 29.1667 18.75V21.25C29.1667 22.1667 28.4167 22.9167 27.5 22.9167Z" fill="#FAFBFC"/>
<path d="M31.6667 12.4L24.2833 6.66667H29.9667C30.8833 6.66667 31.6333 7.39999 31.6333 8.31666L31.6667 12.4Z" fill="#FAFBFC"/>
</svg>
