<svg width="40" height="40" viewBox="0 0 40 40" fill="none" xmlns="http://www.w3.org/2000/svg">
<path opacity="0.4" d="M29.2166 12.95C29.0999 12.9333 28.9833 12.9333 28.8666 12.95C26.2833 12.8667 24.2333 10.75 24.2333 8.14999C24.2333 5.49999 26.3833 3.33333 29.0499 3.33333C31.6999 3.33333 33.8666 5.48333 33.8666 8.14999C33.8499 10.75 31.7999 12.8667 29.2166 12.95Z" fill="#FAFBFC"/>
<path opacity="0.4" d="M34.65 24.5C32.7833 25.75 30.1666 26.2167 27.75 25.9C28.3833 24.5333 28.7166 23.0167 28.7333 21.4167C28.7333 19.75 28.3666 18.1667 27.6666 16.7834C30.1333 16.45 32.75 16.9167 34.6333 18.1667C37.2666 19.9 37.2666 22.75 34.65 24.5Z" fill="#FAFBFC"/>
<path opacity="0.4" d="M10.7334 12.95C10.85 12.9333 10.9667 12.9333 11.0834 12.95C13.6667 12.8667 15.7167 10.75 15.7167 8.14999C15.7167 5.49999 13.5667 3.33333 10.9 3.33333C8.25004 3.33333 6.08337 5.48333 6.08337 8.14999C6.10004 10.75 8.15004 12.8667 10.7334 12.95Z" fill="#FAFBFC"/>
<path opacity="0.4" d="M10.9166 21.4167C10.9166 23.0333 11.2666 24.5667 11.9 25.95C9.54995 26.2 7.09995 25.7 5.29995 24.5167C2.66662 22.7667 2.66662 19.9166 5.29995 18.1666C7.08329 16.9666 9.59995 16.4833 11.9666 16.75C11.2833 18.15 10.9166 19.7333 10.9166 21.4167Z" fill="#FAFBFC"/>
<path d="M20.2 26.45C20.0667 26.4333 19.9167 26.4333 19.7667 26.45C16.7 26.35 14.25 23.8333 14.25 20.7333C14.25 17.5667 16.8 15 19.9833 15C23.15 15 25.7167 17.5667 25.7167 20.7333C25.7167 23.8333 23.2833 26.35 20.2 26.45Z" fill="#FAFBFC"/>
<path d="M14.7834 29.9C12.2667 31.5833 12.2667 34.35 14.7834 36.0167C17.65 37.9333 22.35 37.9333 25.2167 36.0167C27.7334 34.3333 27.7334 31.5667 25.2167 29.9C22.3667 27.9833 17.6667 27.9833 14.7834 29.9Z" fill="#FAFBFC"/>
</svg>
