<svg width="40" height="40" viewBox="0 0 40 40" fill="none" xmlns="http://www.w3.org/2000/svg">
<path opacity="0.4" d="M33.3333 11.7333V28.2667C33.3333 30.8 33.1 32.6 32.5 33.8833C32.5 33.9 32.4833 33.9333 32.4666 33.95C32.1 34.4167 31.6167 34.65 31.05 34.65C30.1667 34.65 29.1 34.0667 27.95 32.8333C26.5834 31.3667 24.4833 31.4833 23.2833 33.0833L21.6 35.3167C20.9334 36.2167 20.05 36.6667 19.1667 36.6667C18.2833 36.6667 17.4 36.2167 16.7333 35.3167L15.0334 33.0667C13.85 31.4833 11.7667 31.3667 10.4 32.8167L10.3833 32.8333C8.49997 34.85 6.83337 35.15 5.8667 33.95C5.85003 33.9333 5.83333 33.9 5.83333 33.8833C5.23333 32.6 5 30.8 5 28.2667V11.7333C5 9.2 5.23333 7.4 5.83333 6.11666C5.83333 6.1 5.83337 6.08333 5.8667 6.06666C6.8167 4.85 8.49997 5.15 10.3833 7.16666L10.4 7.18333C11.7667 8.63333 13.85 8.51666 15.0334 6.93333L16.7333 4.68333C17.4 3.78333 18.2833 3.33333 19.1667 3.33333C20.05 3.33333 20.9334 3.78333 21.6 4.68333L23.2833 6.91666C24.4833 8.51666 26.5834 8.63333 27.95 7.16666C29.1 5.93333 30.1667 5.35 31.05 5.35C31.6167 5.35 32.1 5.6 32.4666 6.06666C32.5 6.08333 32.5 6.1 32.5 6.11666C33.1 7.4 33.3333 9.2 33.3333 11.7333Z" fill="#FAFBFC"/>
<path d="M26.6667 18.3333H13.3334C12.65 18.3333 12.0834 17.7667 12.0834 17.0833C12.0834 16.4 12.65 15.8333 13.3334 15.8333H26.6667C27.35 15.8333 27.9167 16.4 27.9167 17.0833C27.9167 17.7667 27.35 18.3333 26.6667 18.3333Z" fill="#FAFBFC"/>
<path d="M23.3334 24.1667H13.3334C12.65 24.1667 12.0834 23.6 12.0834 22.9167C12.0834 22.2333 12.65 21.6667 13.3334 21.6667H23.3334C24.0167 21.6667 24.5834 22.2333 24.5834 22.9167C24.5834 23.6 24.0167 24.1667 23.3334 24.1667Z" fill="#FAFBFC"/>
</svg>
