<svg width="40" height="40" viewBox="0 0 40 40" fill="none" xmlns="http://www.w3.org/2000/svg">
<path d="M9.16671 16.6667C12.3884 16.6667 15 14.055 15 10.8333C15 7.61167 12.3884 5 9.16671 5C5.94505 5 3.33337 7.61167 3.33337 10.8333C3.33337 14.055 5.94505 16.6667 9.16671 16.6667Z" fill="#FAFBFC"/>
<path d="M9.16671 35C12.3884 35 15 32.3883 15 29.1667C15 25.945 12.3884 23.3333 9.16671 23.3333C5.94505 23.3333 3.33337 25.945 3.33337 29.1667C3.33337 32.3883 5.94505 35 9.16671 35Z" fill="#FAFBFC"/>
<path opacity="0.4" d="M25.4167 19.9667L37.4167 11C37.9667 10.5833 38.0834 9.8 37.6667 9.25C37.25 8.7 36.4667 8.58333 35.9167 9L23.3334 18.4167L14.0834 11.5C13.5334 11.0833 12.75 11.2 12.3334 11.75C11.9167 12.3 12.0333 13.0833 12.5833 13.5L21.25 19.9833L11.4167 27.35C10.8667 27.7667 10.7501 28.55 11.1667 29.1C11.4167 29.4333 11.7833 29.6 12.1667 29.6C12.4333 29.6 12.6834 29.5167 12.9167 29.35L23.35 21.55L35.9334 30.9667C36.15 31.1333 36.4167 31.2167 36.6834 31.2167C37.0667 31.2167 37.4333 31.05 37.6833 30.7167C38.1 30.1667 37.9833 29.3833 37.4333 28.9667L25.4167 19.9667Z" fill="#FAFBFC"/>
</svg>
